<svg xmlns="http://www.w3.org/2000/svg" width="29" height="29" viewBox="0 0 29 29"><g><g clip-path="url(#clip-e6234780-5f60-416a-9d07-d6d294755d40)"><g><g><g><path fill="#3ab3df" d="M14.427 27.403c-7.023 0-12.736-5.713-12.736-12.736C1.69 7.644 7.404 1.93 14.427 1.93c7.023 0 12.737 5.714 12.737 12.737S21.45 27.403 14.427 27.403zM24.63 4.465A14.333 14.333 0 0 0 14.427.239c-3.853 0-7.477 1.5-10.201 4.226A14.333 14.333 0 0 0 0 14.667c0 3.853 1.5 7.476 4.226 10.201a14.333 14.333 0 0 0 10.201 4.226c3.854 0 7.477-1.5 10.202-4.226a14.333 14.333 0 0 0 4.226-10.201c0-3.854-1.501-7.477-4.226-10.202z"/></g></g></g><g><g><g><path fill="#3ab3df" d="M21.32 10.037a.845.845 0 0 0-1.195 0l-7.465 7.465-3.93-3.93a.845.845 0 0 0-1.196 1.196l4.528 4.528a.843.843 0 0 0 1.195 0l8.063-8.063a.845.845 0 0 0 0-1.196z"/></g></g></g></g></g></svg>