<?xml version="1.0" encoding="UTF-8" standalone="no"?>
<!-- Created with Inkscape (http://www.inkscape.org/) -->

<svg
   xmlns:dc="http://purl.org/dc/elements/1.1/"
   xmlns:cc="http://creativecommons.org/ns#"
   xmlns:rdf="http://www.w3.org/1999/02/22-rdf-syntax-ns#"
   xmlns:svg="http://www.w3.org/2000/svg"
   xmlns="http://www.w3.org/2000/svg"
   xmlns:sodipodi="http://sodipodi.sourceforge.net/DTD/sodipodi-0.dtd"
   xmlns:inkscape="http://www.inkscape.org/namespaces/inkscape"
   width="210mm"
   height="297mm"
   viewBox="0 0 744.09448819 1052.3622047"
   id="svg3770"
   version="1.1"
   inkscape:version="0.91 r13725"
   sodipodi:docname="galodent-logo.svg">
  <defs
     id="defs3772" />
  <sodipodi:namedview
     id="base"
     pagecolor="#ffffff"
     bordercolor="#666666"
     borderopacity="1.0"
     inkscape:pageopacity="0.0"
     inkscape:pageshadow="2"
     inkscape:zoom="1.4"
     inkscape:cx="461.05524"
     inkscape:cy="247.23442"
     inkscape:document-units="px"
     inkscape:current-layer="layer1"
     showgrid="false"
     inkscape:window-width="1600"
     inkscape:window-height="847"
     inkscape:window-x="0"
     inkscape:window-y="27"
     inkscape:window-maximized="1" />
  <metadata
     id="metadata3775">
    <rdf:RDF>
      <cc:Work
         rdf:about="">
        <dc:format>image/svg+xml</dc:format>
        <dc:type
           rdf:resource="http://purl.org/dc/dcmitype/StillImage" />
        <dc:title></dc:title>
      </cc:Work>
    </rdf:RDF>
  </metadata>
  <g
     inkscape:label="Layer 1"
     inkscape:groupmode="layer"
     id="layer1">
    <g
       id="g4596"
       inkscape:export-xdpi="90"
       inkscape:export-ydpi="90">
      <path
         inkscape:connector-curvature="0"
         id="path3749"
         style="fill:#3ab3df;fill-opacity:1;fill-rule:nonzero;stroke:none"
         d="m 540.89118,749.90603 -5.53243,0 3.76015,-32.12139 -12.32922,32.12139 -4.80525,0 -4.69928,-32.12139 -3.86612,32.12139 -5.53975,0 5.22549,-44.01026 8.14883,0 4.38867,33.99814 12.21959,-33.99814 8.25115,0 -5.22183,44.01026 z m -35.7233,-12.30729 -10.24268,0 0.73449,-6.04806 10.23537,0 -0.72718,6.04806 z m -13.37431,12.30729 c -1.35571,0.41657 -2.71141,0.62521 -4.07077,0.62521 -3.65783,0 -5.22548,-2.50238 -4.59696,-7.4041 l 2.29848,-19.18885 -2.71506,0 0.62487,-4.69306 2.60909,0 0.62486,-5.7356 5.854,-3.12872 -1.04144,8.86432 3.96845,0 -0.52255,4.69306 -3.9721,0 -2.19616,18.14667 c -0.31426,2.60655 0.10962,3.9626 1.15106,3.9626 0.83316,0 1.66997,-0.20814 2.50677,-0.62668 l -0.52254,4.48515 z m -14.62405,0 -5.3278,0 2.29848,-19.29447 c 0.62852,-4.90026 -0.3106,-7.29849 -2.71506,-7.29849 -1.25338,0 -2.40445,0.72938 -3.44955,2.2941 -1.14741,1.56434 -1.77593,3.23284 -2.09019,5.21414 l -2.19251,19.08472 -5.43012,0 2.82103,-24.29886 c 0.31061,-2.81484 0.5189,-4.90173 0.41658,-6.36194 l 5.3278,0 -0.10232,1.98092 c 1.77228,-1.77263 3.86248,-2.60616 6.05499,-2.60616 5.43377,0 7.62993,4.06675 6.68715,12.20132 l -2.29848,19.08472 z m -26.11645,-18.45948 0.10582,-0.62524 c 0.31426,-2.60763 0.10232,-4.58893 -0.5262,-5.94352 -0.62486,-1.25338 -1.45802,-1.87717 -2.7114,-1.87717 -1.46168,0 -2.71872,0.62379 -3.76016,2.08546 -1.15107,1.45875 -1.8819,3.64834 -2.19616,6.36047 l 9.08795,0 z m 5.3278,0.3128 c -0.31426,2.60909 -1.46167,3.85955 -3.34358,3.85955 l -11.59472,0 -0.20815,1.77301 c -0.73083,5.84085 0.62852,8.75981 3.96845,8.75981 2.71871,0 4.38867,-2.08692 4.91122,-6.25781 l 5.01719,0 c -0.31426,3.1291 -1.46532,5.73707 -3.44955,7.82253 -1.8819,1.97984 -4.18038,3.02309 -6.79312,3.02309 -3.4459,0 -5.95267,-1.35605 -7.41434,-4.06672 -1.46533,-2.71068 -1.98422,-6.57023 -1.3557,-11.47195 0.62486,-5.31868 1.98056,-9.3854 4.17307,-12.30583 2.0902,-2.81483 4.80891,-4.27504 8.04286,-4.27504 3.03298,0 5.22549,1.14741 6.68716,3.54567 1.35936,2.39787 1.8819,5.63109 1.35936,9.59369 l 0,0 z m -29.14212,2.39934 c 0.83316,-7.30106 -0.5262,-10.95124 -4.18404,-10.95124 -3.13163,0 -5.11586,3.65018 -5.95266,10.95124 -0.93913,7.92627 0.20814,11.88887 3.33992,11.88887 1.46533,0 2.72237,-0.83497 3.86978,-2.39934 1.46168,-1.9813 2.4008,-5.21452 2.927,-9.48953 l 0,0 z m 3.7565,15.74734 -5.11585,0 c -0.21195,-0.73084 -0.21195,-1.87717 -0.10583,-3.12909 l 0,0 c -1.77593,2.50384 -3.86613,3.7543 -6.47887,3.7543 -3.02566,0 -5.22183,-1.45875 -6.58118,-4.27501 -1.3557,-2.9208 -1.77594,-6.78035 -1.25339,-11.68061 0.62852,-5.00624 1.88191,-8.96845 3.86613,-11.78329 1.8819,-2.71213 4.2827,-4.06818 7.00142,-4.06818 2.82103,0 4.80525,1.14595 6.05863,3.5471 l 1.87825,-16.47818 5.43012,0 -4.48734,37.85515 c -0.10962,1.35609 -0.21194,3.44151 -0.21194,6.25781 l 0,0 z m -27.68044,-14.39275 0.20844,-1.87714 c 0.83315,-6.98718 -0.52255,-10.53282 -4.07807,-10.53282 -3.54456,0 -5.74438,3.54564 -6.57753,10.53282 l -0.20815,1.87714 c -0.83681,7.09277 0.52255,10.53428 4.07442,10.53428 3.55186,0 5.74438,-3.44151 6.58118,-10.53428 l 0,0 z m 5.32415,0 c -0.52255,4.79759 -1.87825,8.44885 -4.07076,11.05537 -2.29849,2.71213 -5.01354,3.96259 -8.35712,3.96259 -3.23761,0 -5.74803,-1.25046 -7.31202,-3.96259 -1.66997,-2.60652 -2.19617,-6.36048 -1.56765,-11.05537 l 0.21194,-1.87714 c 0.5189,-4.69162 1.98423,-8.44593 4.17308,-11.05391 2.19617,-2.71213 5.0172,-3.96224 8.2548,-3.96224 3.34358,0 5.85035,1.35608 7.418,3.96224 1.56399,2.60798 2.08653,6.36229 1.56399,11.05391 l -0.31426,1.87714 z m -26.84364,14.39275 -5.43377,0 5.11951,-44.01026 5.53609,0 -5.22183,44.01026 z m -14.52172,-12.09754 0.31426,-2.8163 -2.40446,0 c -3.44589,0 -5.3278,1.98276 -5.84669,5.83977 -0.10583,1.56434 0,2.81626 0.41292,3.75539 0.42023,0.93804 1.04875,1.46021 1.88556,1.46021 3.13164,0 5.00989,-2.8148 5.63841,-8.23907 l 0,0 z m 4.38867,12.09754 -5.01719,0 c -0.10232,-0.62525 -0.10232,-1.25193 -0.10232,-1.87717 -1.56765,1.66742 -3.65784,2.50238 -6.26693,2.50238 -2.40445,0 -4.07441,-0.83496 -5.22183,-2.60651 -1.15106,-1.6685 -1.46167,-3.85993 -1.15106,-6.57168 0.3106,-3.02201 1.56399,-5.52586 3.54821,-7.40265 2.09019,-1.98276 4.70293,-3.02493 7.94419,-3.02493 l 2.71141,0 0.31426,-3.12872 c 0.42023,-3.23322 -0.41658,-4.79613 -2.61274,-4.79613 -2.29848,0 -3.54821,1.45875 -3.96845,4.58785 l -5.11585,0 0.10231,-0.62525 c 0.31426,-2.60944 1.25339,-4.58928 2.92335,-6.15365 1.5713,-1.46021 3.76016,-2.18958 6.3729,-2.18958 3.03297,0 5.11951,0.72937 6.26692,2.2952 1.36301,1.66704 1.77594,4.48331 1.25704,8.55006 l -1.98422,16.47672 c -0.10582,1.46167 -0.10582,2.81626 0,3.96406 l 0,0 z m -21.93972,-3.23322 c -4.69928,2.71067 -8.87967,4.06672 -12.42788,4.06672 -4.70293,0 -8.04651,-1.9813 -10.03439,-6.04802 -1.98422,-3.85955 -2.50311,-9.2809 -1.66996,-16.26808 0.83681,-7.19728 2.72237,-12.82838 5.64206,-16.89656 3.02932,-4.27505 6.89544,-6.46464 11.70435,-6.46464 3.33992,0 6.05864,1.46022 8.04286,4.37918 1.77593,2.60947 2.4008,5.52843 2.08654,8.96994 l -5.85035,0 c 0.31426,-2.39788 0,-4.38064 -0.83315,-5.83939 -0.94278,-1.46167 -2.29849,-2.29521 -4.07442,-2.29521 -2.82103,0 -5.11951,1.56438 -7.00142,4.48334 -1.87825,3.13052 -3.2376,7.61385 -3.86247,13.45359 -0.73449,5.52805 -0.42023,9.80345 0.93913,12.82657 1.14741,2.92188 3.02932,4.27647 5.43011,4.27647 2.19617,0 4.38503,-0.62521 6.47887,-1.87714 l 1.46168,-12.20132 -7.31203,0 0.62487,-5.31868 13.06005,0 -2.40445,20.75323" />
      <path
         inkscape:connector-curvature="0"
         id="path3751"
         style="fill:#3ab3df;fill-opacity:1;fill-rule:nonzero;stroke:none"
         d="m 560.63839,798.29546 c 1.14741,0.52363 2.50312,1.35605 3.02566,1.87679 0.62852,0.52401 0.21195,0.52401 -0.93912,0 -0.10232,-0.10407 -53.38032,-23.35938 -136.74322,-23.77777 -54.42541,-0.20961 -93.38997,8.65457 -114.28094,14.80929 -14.52173,4.2754 14.9383,-45.99118 -8.35712,-49.95377 -12.74579,-2.18959 -14.83599,14.39125 -12.95408,28.57572 2.08654,15.64283 6.16095,21.37805 3.02932,22.94131 -0.83681,0.41804 -1.98423,0.41804 -3.02932,-0.10261 -17.0285,-12.51555 -28.93749,-63.92991 -30.40281,-86.76856 -0.41293,-18.56326 7.62993,-18.98022 22.67055,-10.63698 10.76158,5.945 16.08938,4.69197 26.01414,0.31391 7.41434,-3.33847 20.16013,-9.49065 26.53303,-2.19105 1.66996,1.9813 2.7114,6.25777 1.04144,8.55187 -1.66996,2.18959 4.39233,-13.55775 -19.32698,-4.58928 -10.1294,3.75393 -15.24891,7.92628 -26.32108,4.06819 -8.04286,-2.92042 -19.53162,-6.25777 -23.08714,5.42281 -6.05864,20.12798 14.52173,74.46242 19.74356,77.48551 1.25338,0.72829 1.46167,-1.04326 1.25338,-3.85809 -1.14741,-10.94828 -5.11586,-20.33626 -1.66996,-31.49614 4.59696,-14.7037 21.62546,-13.24495 27.78276,-0.10261 4.2827,8.96702 0.5262,20.85481 -1.8746,30.55409 -1.98422,7.71802 0.5189,7.30399 3.76016,6.36194 21.83375,-5.83828 57.97363,-12.30437 105.08702,-12.09754 83.98776,0.41842 138.83341,24.50899 139.04535,24.61312 l 0,0" />
      <path
         inkscape:connector-curvature="0"
         id="path3753"
         style="fill:#3ab3df;fill-opacity:1;fill-rule:nonzero;stroke:none"
         d="m 548.72575,766.69955 c -0.31426,0.5167 -0.83681,0.93474 -1.45802,1.249 -0.62852,0.30952 -1.36301,0.52108 -2.09385,0.52108 -1.35935,0 -2.50677,-0.52108 -3.34358,-1.46056 -0.93912,-0.93766 -1.3557,-2.08546 -1.3557,-3.44116 0,-1.35605 0.41658,-2.50385 1.3557,-3.44151 0.94278,-0.93948 2.0902,-1.35605 3.44955,-1.35605 0.7345,0 1.35936,0.10407 1.98788,0.41657 0.62121,0.31426 1.0451,0.72938 1.45802,1.25193 l 0,-1.56437 1.14741,0 0,9.28382 -1.14741,0 0,-1.45875 z m 0,-3.23615 c 0,-0.93766 -0.31426,-1.77263 -1.04144,-2.502 -0.73084,-0.73084 -1.46533,-1.1478 -2.40446,-1.1478 -1.04509,0 -1.87825,0.41696 -2.61274,1.1478 -0.62486,0.72937 -1.04144,1.56434 -1.04144,2.71213 0,1.04179 0.41658,1.87679 1.04144,2.60617 0.73449,0.72937 1.56765,1.04363 2.50677,1.04363 1.0451,0 1.77959,-0.31426 2.51043,-1.14926 0.72718,-0.72937 1.04144,-1.56288 1.04144,-2.71067 l 0,0 z m -13.26469,-1.66704 c -0.41657,-0.7323 -0.83681,-1.14922 -1.35935,-1.5658 -0.52255,-0.31426 -1.14742,-0.41696 -1.87825,-0.41696 -0.94278,0 -1.77594,0.3128 -2.40446,1.04218 -0.73083,0.73083 -1.04144,1.66996 -1.04144,2.71213 0,1.04328 0.31061,1.98241 1.04144,2.71179 0.62852,0.72937 1.46168,1.04363 2.50677,1.04363 0.73449,0 1.35936,-0.2099 1.88191,-0.52109 0.52255,-0.4195 0.93912,-0.83645 1.25338,-1.46167 l 1.35936,0 c -0.42023,0.93913 -0.94278,1.77301 -1.77593,2.29372 -0.73084,0.52401 -1.66997,0.83534 -2.71872,0.83534 -1.3557,0 -2.50677,-0.52108 -3.33992,-1.46056 -0.94278,-0.93766 -1.46533,-2.08546 -1.46533,-3.44116 0,-1.35605 0.52255,-2.50385 1.46533,-3.44151 0.93912,-0.93948 2.09019,-1.46056 3.44589,-1.46056 0.94278,0 1.88191,0.3128 2.61275,0.83534 0.72718,0.52071 1.3557,1.25009 1.77593,2.29518 l -1.35936,0 z m -12.95408,6.36194 0,-9.28382 1.15107,0 0,9.28382 -1.15107,0 z m 1.15107,-10.32746 -1.15107,0 0,-1.87679 1.15107,0 0,1.87679 z m -13.57895,5.63256 c 0,1.14779 0.31061,1.9813 1.04144,2.71067 0.62852,0.7283 1.46168,1.14926 2.50312,1.14926 0.84046,0 1.67362,-0.42096 2.40811,-1.14926 0.73083,-0.72937 1.04144,-1.56288 1.04144,-2.50054 0,-1.14779 -0.31061,-1.98276 -1.04144,-2.71213 -0.73449,-0.835 -1.46533,-1.1478 -2.40811,-1.1478 -1.04144,0 -1.8746,0.3128 -2.50312,1.04218 -0.73083,0.73083 -1.04144,1.56437 -1.04144,2.60762 l 0,0 z m 0.83316,5.52697 c 0.10582,0.52401 0.52254,0.93801 0.93912,1.25192 0.5262,0.31134 1.0451,0.41839 1.77228,0.41839 1.0524,0 1.88556,-0.31426 2.51042,-1.04217 0.62852,-0.7323 0.93913,-1.66996 0.93913,-2.81627 l 0,-0.2096 c -0.41292,0.52109 -0.93913,1.04179 -1.56399,1.35605 -0.52255,0.30953 -1.14742,0.41658 -1.88556,0.41658 -1.3557,0 -2.50312,-0.41658 -3.4459,-1.35605 -0.93912,-0.93767 -1.3557,-2.08546 -1.3557,-3.44116 0,-1.35606 0.41658,-2.50385 1.3557,-3.44151 0.84047,-0.93948 1.98788,-1.46057 3.34724,-1.46057 0.8368,0 1.46167,0.20873 2.08654,0.41693 0.52254,0.3128 1.04875,0.73084 1.46167,1.35608 l 0,-1.56437 1.14741,0 0,7.82507 c 0,1.55853 -0.41292,2.81483 -1.14741,3.74993 -0.83681,0.93912 -1.98422,1.3557 -3.44955,1.3557 -1.04144,0 -1.8746,-0.20668 -2.7114,-0.73084 -0.7345,-0.52071 -1.14742,-1.24862 -1.46168,-2.08397 l 1.46168,0 z m -15.04428,-5.42246 c 0,-1.35605 0.52255,-2.50385 1.46167,-3.44151 0.94278,-1.04363 1.98423,-1.46056 3.34724,-1.46056 1.24973,0 2.40079,0.41693 3.44224,1.35605 0.94278,0.93951 1.36301,2.08546 1.36301,3.44151 0,1.35462 -0.42023,2.50239 -1.36301,3.54567 -0.93547,0.93948 -2.08289,1.46056 -3.33993,1.46056 -1.3557,0 -2.50677,-0.52108 -3.44955,-1.46056 -0.93912,-0.93766 -1.46167,-2.08546 -1.46167,-3.44116 l 0,0 z m 1.25704,0 c 0,1.04328 0.41292,1.98241 1.04144,2.71179 0.73084,0.72937 1.5713,1.04363 2.61274,1.04363 0.94278,0 1.77594,-0.31426 2.50312,-1.04363 0.62852,-0.72938 0.94278,-1.66851 0.94278,-2.71179 0,-1.14776 -0.31426,-1.9813 -1.04144,-2.71213 -0.62852,-0.72938 -1.46168,-1.04218 -2.61275,-1.04218 -0.94277,0 -1.67361,0.3128 -2.40445,1.04218 -0.62852,0.73083 -1.04144,1.66996 -1.04144,2.71213 l 0,0 z m -6.16826,4.59039 0,-12.20425 1.15106,0 0,12.20425 -1.15106,0 z m -13.47298,-4.59039 c 0,-1.35605 0.5189,-2.50385 1.46167,-3.44151 0.93913,-1.04363 1.98423,-1.46056 3.24127,-1.46056 1.3557,0 2.50311,0.41693 3.44589,1.35605 0.93547,0.93951 1.46167,2.08546 1.46167,3.44151 0,1.35462 -0.42023,2.50239 -1.35935,3.54567 -0.93913,0.93948 -2.09019,1.46056 -3.44955,1.46056 -1.3557,0 -2.4008,-0.52108 -3.33993,-1.46056 -0.94277,-0.93766 -1.46167,-2.08546 -1.46167,-3.44116 l 0,0 z m 1.25704,0 c 0,1.04328 0.41292,1.98241 1.04144,2.71179 0.73084,0.72937 1.56399,1.04363 2.50312,1.04363 1.04875,0 1.88556,-0.31426 2.51042,-1.04363 0.73084,-0.72938 1.0451,-1.66851 1.0451,-2.71179 0,-1.14776 -0.31426,-1.9813 -1.0451,-2.71213 -0.62486,-0.72938 -1.56764,-1.04218 -2.60908,-1.04218 -0.94278,0 -1.77594,0.3128 -2.40446,1.04218 -0.62852,0.73083 -1.04144,1.66996 -1.04144,2.71213 l 0,0 z m -7.00142,4.59039 0,-8.0319 -1.77958,0 0,-1.25192 1.77958,0 0,-2.92043 1.14742,0 0,2.92043 1.77593,0 0,1.25192 -1.77593,0 0,8.0319 -1.14742,0 z m -6.26692,-1.45875 c -0.42389,0.5167 -0.83681,0.93474 -1.5713,1.249 -0.62852,0.30952 -1.25339,0.52108 -1.98422,0.52108 -1.3557,0 -2.50312,-0.52108 -3.4459,-1.46056 -0.83681,-0.93766 -1.3557,-2.08546 -1.3557,-3.44116 0,-1.35605 0.51889,-2.50385 1.46167,-3.44151 0.83681,-0.93948 2.08654,-1.35605 3.4459,-1.35605 0.73084,0 1.3557,0.10407 1.98422,0.41657 0.52255,0.31426 1.04144,0.72938 1.46533,1.25193 l 0,-1.56437 1.14741,0 0,9.28382 -1.14741,0 0,-1.45875 z m 0,-3.23615 c 0,-0.93766 -0.31426,-1.77263 -1.0451,-2.502 -0.73449,-0.73084 -1.56764,-1.1478 -2.40445,-1.1478 -1.04875,0 -1.88191,0.41696 -2.60909,1.1478 -0.73449,0.72937 -1.04875,1.56434 -1.04875,2.71213 0,1.04179 0.31426,1.87679 1.04875,2.60617 0.72718,0.72937 1.56034,1.04363 2.50312,1.04363 0.94278,0 1.77593,-0.31426 2.51042,-1.14926 0.73084,-0.72937 1.0451,-1.56288 1.0451,-2.71067 l 0,0 z m -19.01272,-3.12871 c 0.31426,-0.52109 0.83315,-0.93913 1.3557,-1.14777 0.5189,-0.31244 1.14742,-0.41657 1.88191,-0.41657 1.24973,0 2.19251,0.31242 2.71506,1.14595 0.62486,0.73084 0.93912,1.88006 0.93912,3.65161 l 0,4.59039 -1.14741,0 0,-4.90319 c 0,-1.25192 -0.21195,-2.08543 -0.62852,-2.60797 -0.41658,-0.52074 -1.04145,-0.73084 -1.98422,-0.73084 -0.52255,0 -1.0451,0.10553 -1.35571,0.31426 -0.42023,0.20843 -0.73449,0.52071 -1.04875,0.93912 -0.10231,0.20815 -0.20843,0.52109 -0.3106,0.83351 0,0.31426 0,0.83499 0,1.67034 l 0,4.48477 -1.15107,0 0,-5.11148 c 0,-1.14776 -0.20844,-1.87714 -0.62487,-2.39968 -0.52254,-0.52074 -1.15106,-0.73084 -1.98422,-0.73084 -0.62486,0 -1.04875,0.10553 -1.46533,0.31426 -0.41657,0.20843 -0.73083,0.52071 -0.93912,0.93912 -0.20814,0.20815 -0.31426,0.52109 -0.31426,0.83351 -0.10583,0.31426 -0.10583,0.83499 -0.10583,1.67034 l 0,4.48477 -1.14741,0 0,-9.28382 1.14741,0 0,1.14741 c 0.31426,-0.41658 0.73449,-0.72937 1.25704,-0.93912 0.41658,-0.20815 1.04145,-0.31242 1.56765,-0.31242 0.73083,0 1.35935,0.10407 1.98422,0.41657 0.52255,0.31426 1.0451,0.72938 1.35936,1.14777 l 0,0 z m -20.68633,3.23322 c 0,-1.35605 0.41657,-2.50385 1.35935,-3.44151 0.93913,-1.04363 2.09019,-1.46056 3.34358,-1.46056 1.35936,0 2.50677,0.41693 3.4459,1.35605 0.93912,0.93951 1.35935,2.08546 1.35935,3.44151 0,1.35462 -0.42023,2.50239 -1.35935,3.54567 -0.93913,0.93948 -2.08654,1.46056 -3.34358,1.46056 -1.35571,0 -2.50677,-0.52108 -3.4459,-1.46056 -0.94278,-0.93766 -1.35935,-2.08546 -1.35935,-3.44116 l 0,0 z m 1.25338,0 c 0,1.04328 0.31061,1.98241 0.93913,2.71179 0.73083,0.72937 1.57129,1.04363 2.61274,1.04363 0.94278,0 1.77593,-0.31426 2.50677,-1.04363 0.62486,-0.72938 0.93912,-1.66851 0.93912,-2.71179 0,-1.14776 -0.31426,-1.9813 -0.93912,-2.71213 -0.73084,-0.72938 -1.56399,-1.04218 -2.60909,-1.04218 -0.93913,0 -1.77959,0.3128 -2.51042,1.04218 -0.62852,0.73083 -0.93913,1.66996 -0.93913,2.71213 l 0,0 z m -7.10373,4.59039 0,-8.0319 -1.77594,0 0,-1.25192 1.77594,0 0,-2.92043 1.25704,0 0,2.92043 1.66996,0 0,1.25192 -1.66996,0 0,8.0319 -1.25704,0 z m -10.54963,-2.92335 1.25338,0 0,0.10553 c 0,0.52109 0.21195,1.04218 0.52255,1.46168 0.31061,0.31133 0.73084,0.52108 1.24973,0.52108 0.42389,0 0.83681,-0.10699 1.15107,-0.42096 0.31426,-0.30987 0.42023,-0.72826 0.42023,-1.14484 0,-0.41696 -0.10582,-0.73084 -0.31426,-1.04217 -0.31426,-0.31245 -0.73084,-0.52109 -1.35936,-0.73084 -1.04509,-0.41658 -1.66996,-0.72938 -1.98422,-1.14633 -0.31426,-0.41804 -0.5262,-0.93913 -0.5262,-1.56581 0,-0.72937 0.31426,-1.35608 0.84046,-1.77119 0.52255,-0.52255 1.14742,-0.83535 1.88191,-0.83535 0.83315,0 1.46167,0.20873 1.87459,0.72975 0.52621,0.41804 0.73449,1.04326 0.73449,1.87679 l -1.25338,0 c 0,-0.52108 -0.10583,-0.83353 -0.41658,-1.04182 -0.21194,-0.20873 -0.62486,-0.41693 -1.04875,-0.41693 -0.3106,0 -0.62486,0.20815 -0.93912,0.41693 -0.20815,0.31245 -0.41658,0.62525 -0.41658,1.04182 0,0.20961 0.10582,0.41839 0.20814,0.62668 0.10583,0.20814 0.31426,0.41842 0.52255,0.52109 0.21194,0.10553 0.52255,0.31245 0.93913,0.41804 0.42023,0.10319 0.73449,0.20872 0.94278,0.31133 0.52254,0.2099 0.94277,0.52401 1.25338,0.93913 0.31426,0.41696 0.41658,0.93804 0.41658,1.56472 0,0.835 -0.31426,1.46021 -0.83316,1.98095 -0.62852,0.52401 -1.25704,0.83534 -2.09384,0.83534 -0.93913,0 -1.66997,-0.31133 -2.18886,-0.83534 -0.52255,-0.62525 -0.73449,-1.35462 -0.83681,-2.39934 l 0,0 z m -14.52173,1.4646 c -0.41658,0.5167 -0.93912,0.93474 -1.56399,1.249 -0.62852,0.30952 -1.25704,0.52108 -2.09019,0.52108 -1.35936,0 -2.40811,-0.52108 -3.34358,-1.46056 -0.93913,-0.93766 -1.36301,-2.08546 -1.36301,-3.44116 0,-1.35605 0.42388,-2.50385 1.36301,-3.44151 0.93547,-0.93948 2.08654,-1.35605 3.44589,-1.35605 0.73084,0 1.46168,0.10407 1.98788,0.41657 0.62487,0.31426 1.14741,0.72938 1.56399,1.25193 l 0,-1.56437 1.14741,0 0,9.28382 -1.14741,0 0,-1.45875 z m 0,-3.23615 c 0,-0.93766 -0.41658,-1.77263 -1.15107,-2.502 -0.62486,-0.73084 -1.46167,-1.1478 -2.4008,-1.1478 -0.93912,0 -1.8819,0.41696 -2.51042,1.1478 -0.72718,0.72937 -1.04144,1.56434 -1.04144,2.71213 0,1.04179 0.31426,1.87679 1.04144,2.60617 0.62852,0.72937 1.46533,1.04363 2.51042,1.04363 0.93913,0 1.77594,-0.31426 2.4008,-1.14926 0.73449,-0.72937 1.15107,-1.56288 1.15107,-2.71067 l 0,0 z m -13.37066,-1.66704 c -0.31426,-0.7323 -0.73449,-1.14922 -1.25338,-1.5658 -0.62852,-0.31426 -1.25339,-0.41696 -1.87825,-0.41696 -1.04875,0 -1.77594,0.3128 -2.51043,1.04218 -0.62486,0.73083 -0.93547,1.66996 -0.93547,2.71213 0,1.04328 0.31061,1.98241 0.93547,2.71179 0.73449,0.72937 1.56765,1.04363 2.51043,1.04363 0.72718,0 1.3557,-0.2099 1.87825,-0.52109 0.62486,-0.4195 1.04509,-0.83645 1.25338,-1.46167 l 1.3557,0 c -0.41657,0.93913 -0.93912,1.77301 -1.66996,2.29372 -0.83315,0.52401 -1.66996,0.83534 -2.71871,0.83534 -1.3557,0 -2.50312,-0.52108 -3.4459,-1.46056 -0.93912,-0.93766 -1.3557,-2.08546 -1.3557,-3.44116 0,-1.35605 0.41658,-2.50385 1.3557,-3.44151 0.94278,-0.93948 2.0902,-1.46056 3.4459,-1.46056 1.04875,0 1.88556,0.3128 2.61274,0.83534 0.83681,0.52071 1.35936,1.25009 1.77593,2.29518 l -1.3557,0 z m -12.95408,6.36194 0,-9.28382 1.25339,0 0,9.28382 -1.25339,0 z m 1.25339,-10.32746 -1.25339,0 0,-1.87679 1.25339,0 0,1.87679 z m -13.26835,1.04364 1.15107,0 0,1.14741 c 0.41658,-0.41658 0.83681,-0.72937 1.25339,-0.93912 0.52255,-0.20815 1.04509,-0.31242 1.67361,-0.31242 0.73084,0 1.24973,0.10407 1.77228,0.31242 0.62852,0.31279 1.0451,0.6267 1.25704,1.14779 0.31426,0.31242 0.41658,0.73084 0.5189,1.14741 0.10962,0.41839 0.10962,1.14777 0.10962,1.9813 l 0,4.79903 -1.15107,0 0,-5.11148 c 0,-1.14776 -0.21194,-1.87714 -0.62852,-2.39968 -0.42023,-0.52074 -1.04509,-0.73084 -1.98422,-0.73084 -0.52255,0 -1.04509,0.10553 -1.46167,0.31426 -0.42023,0.20843 -0.73084,0.52071 -0.94278,0.93912 -0.20814,0.20815 -0.31426,0.52109 -0.31426,0.83351 -0.10232,0.31426 -0.10232,0.83499 -0.10232,1.67034 l 0,4.48477 -1.15107,0 0,-9.28382 z m -5.53243,9.28382 0,-9.28382 1.24973,0 0,9.28382 -1.24973,0 z m 1.24973,-10.32746 -1.24973,0 0,-1.87679 1.24973,0 0,1.87679 z m -6.78947,10.32746 0,-12.20425 1.25704,0 0,12.20425 -1.25704,0 z m -5.43012,-9.07553 c -0.52255,-0.72938 -1.15107,-1.3546 -1.77959,-1.66704 -0.72718,-0.31426 -1.46167,-0.52401 -2.4008,-0.52401 -1.35935,0 -2.50677,0.52401 -3.44589,1.46167 -1.0451,1.04217 -1.46533,2.29375 -1.46533,3.6498 0,1.46021 0.42023,2.71213 1.46533,3.75431 0.93912,1.04474 2.08654,1.56583 3.44589,1.56583 0.83681,0 1.67362,-0.2099 2.29848,-0.52109 0.73084,-0.4195 1.35936,-0.94058 1.88191,-1.66996 l 1.3557,0 c -0.52255,1.04179 -1.25338,1.87679 -2.19251,2.50201 -0.94278,0.52401 -2.09019,0.83534 -3.23761,0.83534 -1.77958,0 -3.34357,-0.62814 -4.49099,-1.87714 -1.25704,-1.25192 -1.77593,-2.81629 -1.77593,-4.5893 0,-0.83351 0.10232,-1.6685 0.41658,-2.50201 0.3106,-0.73083 0.83315,-1.46167 1.46167,-2.08545 0.62487,-0.52401 1.25338,-0.94094 1.98422,-1.25339 0.73084,-0.31133 1.46533,-0.52109 2.29848,-0.52109 1.25339,0 2.4008,0.3128 3.34358,0.93913 0.93913,0.62671 1.77959,1.45913 2.29848,2.50239 l -1.46167,0" />
    </g>
  </g>
</svg>
