<svg xmlns="http://www.w3.org/2000/svg" width="41" height="48" viewBox="0 0 41 48"><defs><linearGradient id="zhfja" x1="0" x2="40.63" y1="23.75" y2="23.75" gradientUnits="userSpaceOnUse"><stop offset="0" stop-color="#5cc3e8"/><stop offset="1" stop-color="#7edbff"/></linearGradient><linearGradient id="zhfjb" x1="23.41" x2="37" y1="31.56" y2="37.22" gradientUnits="userSpaceOnUse"><stop offset="0" stop-color="#289ec9"/><stop offset="1" stop-color="#7edbff"/></linearGradient></defs><g><g><g><g><path fill="url(#zhfja)" d="M4.598 22.524zm0 0C16.808 7.922 38.022 14.63 34.62.065a6.013 6.013 0 0 0-.718-.064c-5.325-.093-7.367 4.533-13.582 4.533-6.216 0-8.264-4.626-13.589-4.533-5.725.103-8.587 7.97-5.42 15.429 1.167 2.744 2.305 5.004 3.286 7.094zm34.719-7.094c2.753-6.488.949-13.28-3.328-15.002 5.158 12.36-11.902 16.249-22.118 26.314-4.77 4.7-6.654 11.659-4.587 18.025.529 1.625 1.154 2.67 1.837 2.744 1.718.192 2.24-13.316 9.193-13.316 6.953 0 7.479 13.508 9.197 13.316 1.837-.212 3.267-7.466 3.472-14.105.205-6.638 3.167-10.52 6.334-17.976z"/></g><g><path fill="url(#zhfjb)" d="M13.923 40.475c1.218-3.206 3.07-6.286 6.391-6.286 6.95 0 7.479 13.508 9.197 13.315 1.837-.205 3.267-7.456 3.472-14.104.122-3.92 1.208-6.882 2.724-10.184C16.381 29.3 13.923 40.475 13.923 40.475z"/></g></g></g></g></svg>