<svg xmlns="http://www.w3.org/2000/svg" width="20" height="15" viewBox="0 0 20 15"><g><g><g><g><path fill="#fff" d="M2.198 4.62c.242.17.969.675 2.182 1.516 1.213.84 2.143 1.488 2.789 1.942l.452.325c.23.166.422.301.574.404.153.103.338.218.554.346.216.128.42.223.612.287.192.064.369.096.532.096h.022c.163 0 .34-.032.532-.096.191-.064.396-.16.612-.287.216-.128.4-.243.553-.346.153-.103.344-.238.575-.404.23-.167.381-.275.452-.325l4.981-3.46c.518-.36.95-.797 1.299-1.308.347-.51.521-1.047.521-1.607 0-.468-.168-.87-.506-1.203a1.645 1.645 0 0 0-1.197-.5H2.071C1.524 0 1.104.184.809.553c-.294.37-.441.83-.441 1.384 0 .447.195.931.585 1.453.39.521.805.931 1.245 1.23z"/></g><g><path fill="#fff" d="M18.376 5.758c-2.327 1.575-4.094 2.799-5.3 3.672-.405.298-.733.53-.985.697a6.075 6.075 0 0 1-1.006.51c-.418.175-.808.261-1.17.261H9.894c-.363 0-.753-.086-1.171-.26a6.077 6.077 0 0 1-1.006-.511c-.252-.167-.58-.4-.985-.697-.958-.703-2.72-1.927-5.29-3.672a5.638 5.638 0 0 1-1.074-.926v8.45c0 .469.166.87.5 1.203.333.334.734.5 1.203.5h15.666c.469 0 .87-.166 1.203-.5.334-.334.5-.734.5-1.203v-8.45c-.305.34-.66.65-1.064.926z"/></g></g></g></g></svg>