<svg xmlns="http://www.w3.org/2000/svg" width="26" height="21" viewBox="0 0 26 21"><g><g><g><g><path fill="#3ab3df" d="M23.41 20.397c.579 0 1.08-.19 1.505-.568l-7.283-7.283-.504.363c-.545.401-.988.715-1.327.94-.34.224-.792.454-1.356.688-.564.234-1.09.351-1.578.351h-.028c-.488 0-1.014-.117-1.579-.351-.564-.234-1.016-.464-1.355-.689-.34-.224-.782-.538-1.327-.94-.152-.11-.32-.233-.503-.364L.791 19.83c.425.377.926.568 1.504.568z"/></g><g><path fill="#3ab3df" d="M1.449 7.96A7.605 7.605 0 0 1 0 6.712v11.08l6.42-6.418A495.959 495.959 0 0 0 1.448 7.96z"/></g><g><path fill="#3ab3df" d="M24.272 7.96a422.952 422.952 0 0 0-4.983 3.416l6.417 6.417V6.712c-.411.46-.89.875-1.434 1.248z"/></g><g><path fill="#3ab3df" d="M23.41.2H2.296C1.56.2.992.447.595.944S0 2.065 0 2.81c0 .602.263 1.255.79 1.958.525.703 1.085 1.255 1.677 1.657.326.23 1.306.911 2.941 2.044a950.958 950.958 0 0 1 3.759 2.618l.214.153.395.285c.311.224.57.406.775.545.205.139.454.294.746.466.292.172.567.301.825.387.258.086.497.13.717.13H12.868c.22 0 .459-.044.717-.13.258-.086.533-.215.825-.387.291-.172.54-.328.746-.466.205-.139.464-.32.774-.545a95.15 95.15 0 0 1 .61-.438l1.452-1.009 5.262-3.653a6.823 6.823 0 0 0 1.75-1.764c.467-.689.702-1.41.702-2.166 0-.632-.227-1.172-.681-1.622A2.219 2.219 0 0 0 23.41.2z"/></g></g></g></g></svg>