<svg xmlns="http://www.w3.org/2000/svg" width="26" height="26" viewBox="0 0 26 26"><g><g><g><path fill="#3ab3df" d="M22.455 8.42c0 .236-.193.43-.432.43h-2.37a.43.43 0 0 1-.431-.43V7.415a.43.43 0 0 1 .431-.43h2.37c.24 0 .432.193.432.43zm0 3.42c0 .237-.193.43-.432.43h-2.37a.43.43 0 0 1-.431-.43v-1.005a.43.43 0 0 1 .431-.431h2.37c.24 0 .432.193.432.43zm0 3.418a.43.43 0 0 1-.432.43h-2.37a.43.43 0 0 1-.431-.43v-1.005a.43.43 0 0 1 .431-.43h2.37a.43.43 0 0 1 .432.43zM17.752 8.42a.43.43 0 0 1-.431.43H14.95a.43.43 0 0 1-.43-.43V7.415c0-.237.19-.43.43-.43h2.371c.24 0 .43.193.43.43zm0 3.42a.43.43 0 0 1-.431.43H14.95a.43.43 0 0 1-.43-.43v-1.005c0-.238.19-.431.43-.431h2.371c.24 0 .43.193.43.43zm0 3.418c0 .238-.191.43-.431.43H14.95a.428.428 0 0 1-.43-.43v-1.005c0-.236.19-.43.43-.43h2.371c.24 0 .43.194.43.43zM13.048 8.42c0 .236-.192.43-.43.43h-2.372a.43.43 0 0 1-.43-.43V7.415a.43.43 0 0 1 .43-.43h2.372a.43.43 0 0 1 .43.43zm0 3.42a.43.43 0 0 1-.43.43h-2.372a.43.43 0 0 1-.43-.43v-1.005a.43.43 0 0 1 .43-.431h2.372a.43.43 0 0 1 .43.43zm0 3.418a.43.43 0 0 1-.43.43h-2.372a.429.429 0 0 1-.43-.43v-1.005a.43.43 0 0 1 .43-.43h2.372a.43.43 0 0 1 .43.43zm12.5-14.74c-.007-.008-.01-.016-.014-.02-.006-.011-.016-.018-.018-.026a1.006 1.006 0 0 0-.816-.42H7.569C7.01.052 6.56.504 6.56 1.061V21.61c0 .202.06.39.162.548.005.005.007.012.01.017.008.01.017.017.02.025.185.255.48.42.816.42h1.255a2.853 2.853 0 0 1-2.813 2.424 2.848 2.848 0 0 1-2.816-2.469H4.46c.558 0 1.009-.452 1.009-1.008V1.016c0-.2-.06-.388-.161-.543l-.013-.02A1.006 1.006 0 0 0 4.46.009H1.006C.45.009 0 .462 0 1.017v20.55c0 .202.059.39.161.547.005.005.008.012.012.017.006.011.014.018.018.026.186.255.48.42.816.42h1.504c.196 1.767 1.682 3.15 3.5 3.15 1.804 0 3.28-1.362 3.496-3.107h15.192c.558 0 1.007-.453 1.007-1.008V1.061a.978.978 0 0 0-.159-.544z"/></g></g></g></svg>