<svg xmlns="http://www.w3.org/2000/svg" width="100" height="100" viewBox="0 0 100 100"><g><g opacity=".3"><path fill="#fff" d="M0 50C0 22.386 22.386 0 50 0s50 22.386 50 50-22.386 50-50 50S0 77.614 0 50z"/></g><g><path fill="#fff" d="M6 50C6 25.7 25.7 6 50 6s44 19.7 44 44-19.7 44-44 44S6 74.3 6 50z"/></g><g><path fill="#3ab3df" d="M75.926 51.79c0 .677-.393 1.26-.96 1.546-.517-3.331-3.395-5.892-6.868-5.892a6.962 6.962 0 0 0-6.088 3.598 6.962 6.962 0 0 0-6.089-3.598 6.962 6.962 0 0 0-6.088 3.598 6.962 6.962 0 0 0-6.089-3.598 6.962 6.962 0 0 0-6.088 3.598 6.962 6.962 0 0 0-6.088-3.598c-3.473 0-6.352 2.56-6.868 5.892a1.735 1.735 0 0 1-.96-1.546V40.48c0-.96.78-1.74 1.74-1.74h48.707c.959 0 1.74.78 1.74 1.74zm-42.619 4.352a.869.869 0 1 0 0 1.74v.87h-3.479v-3.48h3.48zm3.48 0h-1.74v-1.74a.869.869 0 0 0-.87-.87h-5.219a.869.869 0 0 0-.87.87v5.22c0 .48.39.869.87.869h5.219c.48 0 .87-.389.87-.87v-1.74h1.74v4.35H26.348v-7.829a5.224 5.224 0 0 1 5.219-5.218 5.224 5.224 0 0 1 5.218 5.218zm12.176 0h-1.74v-1.74a.869.869 0 0 0-.87-.87h-5.218a.869.869 0 0 0-.87.87v1.74h-1.74v-1.74a5.224 5.224 0 0 1 5.22-5.218 5.224 5.224 0 0 1 5.218 5.218zm12.177 0H59.4v-1.74a.869.869 0 0 0-.87-.87h-5.218a.869.869 0 0 0-.87.87v1.74h-1.74v-1.74a5.224 5.224 0 0 1 5.22-5.218 5.224 5.224 0 0 1 5.218 5.218zm5.219 0v-.87h3.479v3.48h-3.48v-.87a.869.869 0 1 0 0-1.74zm-12.177 0v-.87h3.479v.87a.869.869 0 1 0 0 1.74v.87h-3.48v-.87a.869.869 0 1 0 0-1.74zm-3.48 1.74h1.74v1.74c0 .48.389.869.87.869h5.219c.48 0 .87-.389.87-.87v-1.74h1.739v4.35H50.703zm-9.567 2.609h5.219c.48 0 .87-.389.87-.87v-1.74h1.739v4.35H38.526v-4.35h1.74v1.74c0 .481.388.87.87.87zm4.349-4.349a.869.869 0 1 0 0 1.74v.87h-3.48v-.87a.869.869 0 1 0 0-1.74v-.87h3.48zm27.833 6.088H62.879v-4.348h1.74v1.74c0 .48.389.869.87.869h5.218c.481 0 .87-.389.87-.87v-5.219a.869.869 0 0 0-.87-.87H65.49a.869.869 0 0 0-.87.87v1.74h-1.74v-1.74a5.224 5.224 0 0 1 5.22-5.218 5.224 5.224 0 0 1 5.218 5.218zM25.479 37A3.483 3.483 0 0 0 22 40.48v11.31a3.475 3.475 0 0 0 2.61 3.355V63.1c0 .481.388.87.87.87h48.707c.48 0 .87-.389.87-.87v-7.955a3.475 3.475 0 0 0 2.609-3.355V40.48c0-1.92-1.56-3.48-3.48-3.48z"/></g></g></svg>