<svg xmlns="http://www.w3.org/2000/svg" width="16" height="13" viewBox="0 0 16 13"><g><g><path fill="#fff" d="M16 1.497A6.651 6.651 0 0 1 14.162 2 3.172 3.172 0 0 0 15.565.237a6.375 6.375 0 0 1-2.023.772A3.19 3.19 0 0 0 8.024 3.19c0 .254.022.497.074.728A9.03 9.03 0 0 1 1.523.582a3.195 3.195 0 0 0 .98 4.264 3.15 3.15 0 0 1-1.441-.394v.035a3.205 3.205 0 0 0 2.556 3.135c-.26.07-.543.105-.837.105a2.82 2.82 0 0 1-.604-.055 3.22 3.22 0 0 0 2.981 2.223 6.41 6.41 0 0 1-3.955 1.36c-.262 0-.513-.011-.764-.044a8.981 8.981 0 0 0 4.894 1.432c5.87 0 9.08-4.863 9.08-9.078 0-.14-.005-.277-.012-.412A6.364 6.364 0 0 0 16 1.497z"/></g></g></svg>