<svg xmlns="http://www.w3.org/2000/svg" width="53" height="58" viewBox="0 0 53 58"><g><g><g><g><g><path fill="#3ab3df" d="M38.48 28.301c-1.783 2.246-2.543 5.963-3.278 9.558-.408 1.991-.792 3.873-1.309 5.21-.286.742-.735 1.626-1.245 1.626-1.197 0-2.104-3.26-2.703-5.416-.37-1.329-.718-2.584-1.165-3.57-.242-.534-.976-2.157-2.548-2.157s-2.307 1.623-2.548 2.156c-.447.987-.796 2.242-1.165 3.57-.6 2.158-1.506 5.417-2.703 5.417-.51 0-.959-.884-1.245-1.625-.517-1.338-.901-3.22-1.309-5.211-.735-3.595-1.495-7.312-3.278-9.558-3.449-4.344-3.449-5.968-3.449-7.848 0-3.943 3.208-7.15 7.151-7.15 2.876 0 4.237 1.817 5.438 3.42.894 1.194 1.738 2.322 3.108 2.322s2.214-1.128 3.108-2.321c1.2-1.604 2.562-3.422 5.438-3.422 3.943 0 7.15 3.208 7.15 7.15 0 1.881 0 3.505-3.448 7.85zM34.777 11.06c-3.998 0-5.945 2.6-7.233 4.32-.398.532-1.065 1.422-1.312 1.422-.248 0-.915-.89-1.313-1.422-1.288-1.72-3.235-4.32-7.233-4.32-5.18 0-9.393 4.213-9.393 9.393 0 2.51.282 4.642 3.935 9.243 1.45 1.826 2.187 5.431 2.837 8.612.427 2.086.83 4.057 1.414 5.57.292.756 1.181 3.06 3.336 3.06 2.902 0 3.945-3.75 4.864-7.058.305-1.098.593-2.135.916-2.938.312-.776.541-1.04.637-1.122.095.083.325.346.636 1.122.323.803.611 1.84.916 2.938.92 3.308 1.962 7.057 4.864 7.057 2.155 0 3.045-2.303 3.336-3.06.585-1.512.987-3.483 1.414-5.569.65-3.18 1.388-6.786 2.838-8.612 3.652-4.601 3.934-6.733 3.934-9.243 0-5.18-4.213-9.393-9.393-9.393z"/></g></g></g><g><g><g><path fill="#3ab3df" d="M44.735 45.897a1.121 1.121 0 0 0-1.585.005l-.02.02a1.121 1.121 0 1 0 1.59 1.58l.02-.02a1.121 1.121 0 0 0-.005-1.585z"/></g></g></g><g><g><g><path fill="#3ab3df" d="M9.333 10.495a1.121 1.121 0 0 0-1.586-.005l-.02.02A1.121 1.121 0 1 0 9.31 12.1l.02-.02c.439-.436.44-1.146.004-1.585z"/></g></g></g><g><g><g><path fill="#3ab3df" d="M29.569 53.242l-2.544-2.544a1.121 1.121 0 0 0-1.914.793v1.397c-5.967-.274-11.538-2.727-15.79-6.979C.966 37.554-.004 24.133 7.065 14.69a1.121 1.121 0 1 0-1.795-1.343A26.144 26.144 0 0 0 .134 30.77a26.14 26.14 0 0 0 7.602 16.725c4.676 4.676 10.808 7.362 17.375 7.636v1.449a1.121 1.121 0 0 0 1.914.792l2.544-2.544a1.121 1.121 0 0 0 0-1.586z"/></g></g></g><g><g><g><path fill="#3ab3df" d="M52.329 27.213a26.14 26.14 0 0 0-7.6-16.71C40.055 5.83 33.926 3.143 27.365 2.865V1.418a1.121 1.121 0 0 0-1.914-.793l-2.544 2.544a1.121 1.121 0 0 0 0 1.586l2.544 2.544a1.12 1.12 0 0 0 1.914-.793V5.11c5.962.276 11.528 2.729 15.777 6.978 8.345 8.345 9.322 21.758 2.272 31.198a1.121 1.121 0 1 0 1.796 1.342 26.145 26.145 0 0 0 5.118-17.415z"/></g></g></g></g></g></svg>