<svg xmlns="http://www.w3.org/2000/svg" width="53" height="33" viewBox="0 0 53 33"><g><g><path fill="#3ab3df" d="M50.983 9.868a2.46 2.46 0 0 1-1.683 2.327 4.528 4.528 0 0 0-4.485-3.97c-1.529 0-2.88.765-3.7 1.931a4.52 4.52 0 0 0-3.702-1.931 4.52 4.52 0 0 0-3.703 1.931 4.514 4.514 0 0 0-3.698-1.931c-1.529 0-2.882.764-3.702 1.929a4.52 4.52 0 0 0-3.7-1.93 4.513 4.513 0 0 0-3.695 1.93 4.521 4.521 0 0 0-3.702-1.93c-1.53 0-2.883.766-3.702 1.931a4.514 4.514 0 0 0-3.697-1.93 4.528 4.528 0 0 0-4.487 3.97 2.46 2.46 0 0 1-1.682-2.327V4.112a2.47 2.47 0 0 1 2.467-2.467h44.404a2.47 2.47 0 0 1 2.467 2.467zm0 13.153v5.755a2.47 2.47 0 0 1-2.467 2.467l-44.404-.001a2.47 2.47 0 0 1-2.467-2.467V23.02c0-1.083.707-1.995 1.68-2.325a4.528 4.528 0 0 0 4.488 3.976c1.528 0 2.88-.766 3.7-1.932a4.52 4.52 0 0 0 3.701 1.932 4.52 4.52 0 0 0 3.703-1.932 4.514 4.514 0 0 0 3.698 1.932c1.53 0 2.882-.765 3.702-1.929a4.522 4.522 0 0 0 3.7 1.929 4.513 4.513 0 0 0 3.696-1.93 4.524 4.524 0 0 0 3.702 1.93c1.53 0 2.883-.766 3.702-1.931a4.514 4.514 0 0 0 3.697 1.93h.002a4.475 4.475 0 0 0 4.47-3.98 2.461 2.461 0 0 1 1.697 2.331zm-40.295-7.396H4.934V12.75a2.883 2.883 0 0 1 2.88-2.88 2.88 2.88 0 0 1 2.874 2.88zm7.406-2.864v2.864h-5.761v-2.877a2.883 2.883 0 0 1 2.88-2.88 2.883 2.883 0 0 1 2.88 2.864l-.001.016.002.013zm7.397.012v2.852h-5.752V12.75l-.001-.016a2.879 2.879 0 0 1 2.872-2.864 2.881 2.881 0 0 1 2.877 2.848l-.001.032c0 .008.005.016.005.024zm7.396 2.852h-5.752V12.75l-.001-.032a2.882 2.882 0 0 1 2.878-2.848 2.88 2.88 0 0 1 2.875 2.88zm7.407 0h-5.762v-2.872-.004a2.883 2.883 0 0 1 2.881-2.88 2.883 2.883 0 0 1 2.88 2.88v.004zm7.4 0h-5.756V12.75c0-1.588 1.29-2.88 2.877-2.88a2.882 2.882 0 0 1 2.879 2.88zM34.532 17.27h5.762v2.88a2.882 2.882 0 0 1-2.88 2.877 2.883 2.883 0 0 1-2.879-2.862v-.017c0-.007-.003-.013-.003-.02zm-7.397 2.846V17.27h5.752v2.877c0 .004.003.008.003.011v.006a2.878 2.878 0 0 1-2.873 2.862 2.881 2.881 0 0 1-2.877-2.847l.002-.032c0-.011-.006-.02-.007-.032zM19.74 17.27h5.752v2.877l.002.011v.021a2.882 2.882 0 0 1-2.878 2.847 2.88 2.88 0 0 1-2.875-2.879l-.001-.008zm-7.406 2.869V17.27h5.761v2.88a2.882 2.882 0 0 1-2.88 2.876 2.882 2.882 0 0 1-2.88-2.879l-.001-.008zm-7.4-2.869h5.755v2.877l.001.003a2.88 2.88 0 0 1-2.876 2.876 2.882 2.882 0 0 1-2.88-2.879zm42.76 2.877c0 .77-.299 1.492-.842 2.036a2.856 2.856 0 0 1-2.036.843h-.001a2.88 2.88 0 0 1-2.875-2.879V17.27h5.755zM48.517 0H4.112A4.116 4.116 0 0 0 0 4.112v5.756a4.119 4.119 0 0 0 3.29 4.028v5.097A4.118 4.118 0 0 0 0 23.02v5.755a4.116 4.116 0 0 0 4.112 4.111l44.404.001a4.116 4.116 0 0 0 4.111-4.111V23.02a4.119 4.119 0 0 0-3.289-4.028v-5.097a4.119 4.119 0 0 0 3.29-4.028V4.112A4.116 4.116 0 0 0 48.515 0z"/></g></g></svg>