<svg xmlns="http://www.w3.org/2000/svg" width="44" height="42" viewBox="0 0 44 42"><g><g><g><path fill="#3ab3df" d="M35.259 36.51c-.35 0-.676-.131-.931-.366l-.015-.021 1.94-1.94c.007.006.014.008.02.015a1.38 1.38 0 0 1-1.014 2.313zM24.463 22.402l6.475 6.475-1.93 1.931-6.475-6.475zm-10.748-6.887l1.93-1.93 4.957 4.957-1.93 1.93zm-3.383-7.245l.003.004-1.93 1.93L8.4 10.2a1.369 1.369 0 0 1 .004-1.929 1.368 1.368 0 0 1 1.927-.002zm-.963 2.9l1.93-1.93.483.482-1.93 1.93zm1.449 1.447l1.93-1.93.482.483-1.93 1.93zm1.448 1.449l1.93-1.93.484.483-1.93 1.93zm14.252 2.421c.53.531.532 1.396.003 1.928l-.004.003-5.417 5.417c-.006.006-.013.007-.018.013-.005.005-.007.013-.013.017L5.35 39.585l-.006.009-.005.003-1.93-1.93.004-.007.007-.005L22.04 19.033c.004-.003.01-.004.013-.008.003-.003.004-.009.008-.012l2.526-2.526.003-.004a1.37 1.37 0 0 1 1.928.003zm8.127-13.92a4.07 4.07 0 0 1 2.896-1.2c1.095 0 2.124.426 2.897 1.2a4.101 4.101 0 0 1 0 5.793 4.069 4.069 0 0 1-2.897 1.2 4.067 4.067 0 0 1-2.896-1.2 4.101 4.101 0 0 1 0-5.793zm-4.672 29.206l1.93-1.93.484.483-1.931 1.93zm1.448 1.449l1.93-1.93.484.483-1.93 1.93zm1.932 1.931l-.483-.483 1.93-1.93.483.483zm9.16 2.403l-2.478 2.477-.231-1.162c-.004-.02-.018-.037-.023-.056a.722.722 0 0 0-.129-.241c-.014-.017-.019-.037-.035-.052l-2-2a2.745 2.745 0 0 0-.414-3.335c-.022-.021-.05-.031-.074-.049l-11.7-11.701 2.048-2.048.006-.004a2.727 2.727 0 0 0 .414-3.312l6.299-6.3a5.414 5.414 0 0 0 3.345 1.152c1.46 0 2.83-.568 3.862-1.6a5.468 5.468 0 0 0 0-7.724A5.426 5.426 0 0 0 37.541 0c-1.459 0-2.83.568-3.861 1.6a5.468 5.468 0 0 0-.45 7.208l-6.299 6.299a2.728 2.728 0 0 0-3.312.414l-.004.006-2.048 2.048L11.304 7.312l-.004-.006a2.728 2.728 0 0 0-3.311-.414L6.473 5.377l.483-.484c.516-.515.8-1.201.8-1.93a2.732 2.732 0 0 0-4.663-1.93L.2 3.925a.682.682 0 1 0 .966.965L4.06 1.997a1.368 1.368 0 0 1 2.332.965c0 .365-.143.708-.4.966l-.966.966a.68.68 0 0 0 0 .965l1.999 1.999a2.729 2.729 0 0 0 .412 3.312l.006.004 3.373 3.372.001.002.003.002 1.444 1.444c0 .001 0 .002.002.002l.002.002 5.438 5.439L2.453 36.69l-.005.006-.007.005a1.366 1.366 0 0 0 0 1.93l1.93 1.932c.267.266.617.4.966.4.35 0 .7-.134.966-.4l.006-.01.004-.003 15.253-15.253 8.406 8.405.001.002.002.001 3.293 3.293c.018.023.027.052.048.073a2.724 2.724 0 0 0 3.335.414l1.855 1.855.44 2.21c.006.024.019.043.026.066a.6.6 0 0 0 .126.23c.015.017.02.038.036.054.008.008.018.01.027.017a.68.68 0 0 0 .148.1c.022.01.042.027.065.035.076.03.157.048.242.048h.001a.628.628 0 0 0 .133-.014c.02-.004.037-.018.056-.024a.683.683 0 0 0 .242-.128c.016-.014.036-.019.051-.034l3.38-3.38a.682.682 0 1 0-.967-.965z"/></g><g><path fill="#3ab3df" d="M36.093 4.014c.387-.387.901-.599 1.449-.599.547 0 1.062.213 1.448.6.386.386.599.9.599 1.448 0 .547-.213 1.061-.599 1.448-.774.774-2.124.772-2.897 0-.386-.387-.6-.9-.6-1.448 0-.548.214-1.062.6-1.449zm1.449 4.862a3.39 3.39 0 0 0 2.413-1 3.391 3.391 0 0 0 1-2.413c0-.913-.356-1.77-1-2.414a3.387 3.387 0 0 0-2.413-1 3.39 3.39 0 0 0-2.414 1 3.39 3.39 0 0 0-1 2.414c0 .912.355 1.77 1 2.413a3.39 3.39 0 0 0 2.414 1z"/></g></g></g></svg>